<?xml version="1.0" standalone="no"?>
<!DOCTYPE svg PUBLIC "-//W3C//DTD SVG 20010904//EN"
 "http://www.w3.org/TR/2001/REC-SVG-20010904/DTD/svg10.dtd">
<svg version="1.0" xmlns="http://www.w3.org/2000/svg"
 width="300.000000pt" height="300.000000pt" viewBox="0 0 300.000000 300.000000"
 preserveAspectRatio="xMidYMid meet">
<metadata>
Created by potrace 1.10, written by Peter Selinger 2001-2011
</metadata>
<g transform="translate(0.000000,300.000000) scale(0.100000,-0.100000)"
fill="#000000" stroke="none">
<path d="M1266 2854 c-163 -29 -345 -106 -495 -207 -136 -91 -294 -260 -374
-398 -26 -45 -29 -46 -93 -57 -84 -14 -148 -45 -202 -99 -50 -50 -92 -133 -92
-181 0 -46 15 -33 49 42 15 34 43 79 62 100 39 45 139 96 186 96 58 0 81 17
137 102 246 372 622 578 1056 578 429 0 808 -206 1046 -567 59 -89 82 -107
158 -117 62 -8 139 -50 182 -100 18 -21 45 -70 60 -107 33 -87 48 -99 42 -32
-6 66 -40 133 -94 187 -54 55 -114 84 -197 98 l-65 11 -60 92 c-191 291 -509
501 -850 560 -107 19 -350 18 -456 -1z"/>
<path d="M1335 2670 c-76 -12 -212 -54 -292 -90 -374 -170 -633 -572 -633
-984 0 -93 20 -232 46 -320 8 -27 14 -53 14 -57 0 -26 -190 -14 -252 15 -70
33 -116 84 -161 174 -42 87 -42 87 -45 49 -7 -81 82 -208 179 -255 62 -30 134
-42 251 -42 92 0 99 1 92 18 -113 256 -109 589 10 846 132 286 387 501 692
583 88 24 117 27 264 27 149 0 175 -3 265 -28 189 -51 341 -141 480 -281 106
-107 183 -227 233 -358 55 -147 66 -213 66 -387 -1 -134 -4 -168 -27 -252 -78
-295 -271 -535 -537 -672 -47 -24 -116 -54 -153 -66 l-69 -22 -16 23 c-28 41
-70 76 -119 100 -68 32 -179 32 -248 -1 -131 -64 -196 -201 -161 -340 36 -138
142 -223 281 -223 117 -1 220 62 272 166 18 37 25 41 120 72 342 110 621 353
773 672 22 45 42 94 46 107 5 20 16 28 48 37 120 31 236 169 236 281 0 38 -1
41 -13 23 -8 -11 -24 -45 -36 -77 -33 -83 -80 -132 -166 -174 -68 -32 -115
-72 -115 -96 0 -20 -94 -196 -144 -268 -108 -157 -317 -332 -489 -409 -37 -17
-110 -44 -163 -62 l-96 -32 -40 -62 c-60 -96 -126 -135 -229 -135 -148 0 -251
103 -253 250 0 105 48 183 139 226 105 50 234 24 317 -64 21 -22 46 -42 56
-44 29 -8 150 34 247 85 517 276 727 898 480 1424 -62 131 -133 229 -244 335
-142 136 -290 217 -490 270 -88 23 -319 33 -416 18z"/>
<path d="M1373 2290 c-137 -25 -274 -99 -378 -205 -84 -86 -127 -155 -168
-272 -29 -82 -31 -97 -31 -223 0 -119 3 -144 27 -215 32 -98 85 -189 153 -263
l51 -57 -66 -54 c-36 -30 -88 -70 -114 -89 -26 -19 -47 -35 -45 -36 2 0 190 1
418 4 l415 6 80 27 c114 38 198 91 285 177 87 87 139 172 177 285 23 69 27 97
27 205 0 142 -15 213 -70 326 -86 176 -257 316 -449 369 -73 19 -241 27 -312
15z m348 -57 c275 -95 459 -353 459 -643 0 -288 -170 -534 -443 -641 -78 -31
-91 -32 -257 -38 -96 -3 -267 -4 -379 -1 l-204 5 49 39 c63 51 94 85 94 105 0
9 -25 45 -54 80 -112 131 -165 274 -166 448 -1 326 214 595 535 669 100 23
262 13 366 -23z"/>
</g>
</svg>
